<?xml version="1.0" encoding="utf-8" standalone="no"?>
<!DOCTYPE svg PUBLIC "-//W3C//DTD SVG 1.1//EN" "http://www.w3.org/Graphics/SVG/1.1/DTD/svg11.dtd">
<svg version="1.1" width="841.68pt" height="595.2pt" viewBox="0 0 841.68 595.2" overflow="visible" xmlns="http://www.w3.org/2000/svg">
  <path d="M445.1348,331.8684 C445.1348,330.5642 445.5912,329.4557 446.5042,328.5428 C447.4171,327.6298 448.5256,327.1734 449.8298,327.1734 C451.134,327.1734 452.2426,327.6298 453.1555,328.5428 C454.0684,329.4557 454.5248,330.5642 454.5248,331.8684 C454.5248,333.1726 454.0684,334.2811 453.1555,335.1941 C452.2426,336.107 451.134,336.5634 449.8298,336.5634 C448.5256,336.5634 447.4171,336.107 446.5042,335.1941 C445.5912,334.2811 445.1348,333.1726 445.1348,331.8684 z" stroke="#000000" stroke-width="0" fill="#DA2102" fill-opacity="1" />
  <path d="M445.1348,331.8684 C445.1348,333.1726 445.5912,334.2811 446.5042,335.1941 C447.4171,336.107 448.5256,336.5634 449.8298,336.5634 C451.134,336.5634 452.2426,336.107 453.1555,335.1941 C454.0684,334.2811 454.5248,333.1726 454.5248,331.8684 C454.5248,330.5642 454.0684,329.4557 453.1555,328.5428 C452.2426,327.6298 451.134,327.1734 449.8298,327.1734 C448.5256,327.1734 447.4171,327.6298 446.5042,328.5428 C445.5912,329.4557 445.1348,330.5642 445.1348,331.8684 z" stroke="#DA2102" stroke-width="0.24" fill="none" />
  <path d="M523.4536,293.7213 L523.4536,299.5901 L487.5561,299.5901 L487.5561,323.9349 L521.2039,323.9349 L521.2039,330.4119 L487.5561,330.4119 L487.5561,357.1042 L523.4536,357.1042 L523.4536,362.973 L481.1005,362.973 L481.1005,293.7213 z" stroke="#000000" stroke-width="0" fill="#1A1C20" fill-opacity="1" />
  <path d="M363.8816,329.7165 L383.0462,361.3474 L377.6801,364.5986 L357.2303,330.1078 L345.1993,330.1078 L345.1993,362.973 L338.7436,362.973 L338.7436,293.7213 L356.9369,293.7213 L360.6538,293.8191 C362.2188,293.8843 363.9142,294.0799 365.7401,294.4059 C367.5659,294.732 369.4244,295.2537 371.3154,295.971 C373.2065,296.6883 374.9019,297.7316 376.4017,299.101 C377.9015,300.4704 379.1405,302.1984 380.1186,304.2851 C381.0967,306.3718 381.5858,308.9149 381.5858,311.9145 C381.5858,315.2402 381.0152,317.9789 379.8741,320.1308 C378.7329,322.2827 377.2983,324.027 375.5703,325.3638 C373.8423,326.7006 371.9349,327.695 369.8482,328.3471 C367.7615,328.9992 365.7727,329.4557 363.8816,329.7165 z M362.9966,323.3003 L364.1042,323.1219 L365.2659,322.8832 L366.4812,322.5821 L367.749,322.2169 L368.2811,322.0448 L368.7597,321.8671 L369.6772,321.457 L370.1191,321.2238 L370.5518,320.971 L371.394,320.4021 L371.6006,320.2459 L371.8582,320.0382 L372.1874,319.7453 L372.8205,319.0809 L373.4268,318.2935 L374.007,317.3622 L374.4124,316.5283 L374.4989,316.2975 L374.5775,316.0639 L374.6575,315.797 L374.729,315.5276 L374.7999,315.2228 L374.8616,314.916 L374.9703,314.2275 L375.0152,313.8451 L375.0503,313.4617 L375.0787,313.0406 L375.0973,312.619 L375.1079,311.7277 L375.1005,311.3322 L375.0848,310.9369 L375.0345,310.2344 L374.9516,309.535 L374.8528,308.9506 L374.723,308.3722 L374.5814,307.8773 L374.4259,307.4366 L374.3459,307.2399 L374.2595,307.046 L373.501,305.6554 L372.9646,304.8938 L372.4071,304.2482 L372.1194,303.9628 L371.9647,303.821 L371.7975,303.6745 L371.1138,303.1404 L370.3996,302.6815 L369.6426,302.2889 L369.2437,302.1156 L368.7761,301.9362 L368.5128,301.8406 L366.3409,301.1659 L365.2952,300.9176 L364.782,300.8151 L364.5181,300.7672 L364.2334,300.718 L363.1328,300.5479 L362.0949,300.4199 L361.1213,300.3325 L360.6592,300.3036 L360.4343,300.2926 L360.1737,300.2817 L359.1603,300.244 L358.3265,300.2191 L357.562,300.2033 L356.9369,300.1982 L345.2206,300.1982 L345.2206,323.6308 L360.6005,323.6308 z" stroke="#000000" stroke-width="0" fill="#1A1C20" fill-opacity="1" />
  <path d="M585.7415,295.5661 L563.4207,326.7 L587.9096,361.0947 L582.6334,364.8513 L559.4314,332.2643 L536.0625,364.86 L530.7985,361.0861 L555.4604,326.687 L533.2808,295.5358 L538.5571,291.7792 L559.4496,321.1227 L580.4776,291.7922 z" stroke="#000000" stroke-width="0" fill="#1A1C20" fill-opacity="1" />
  <path d="M786.3647,300.1982 L762.7046,300.1982 L762.7046,293.7213 L816.5018,293.7213 L816.5018,300.1982 L792.8417,300.1982 L792.8417,362.973 L786.3647,362.973 z" stroke="#000000" stroke-width="0" fill="#1A1C20" fill-opacity="1" />
  <path d="M738.1535,329.7165 L757.3181,361.3474 L751.952,364.5986 L731.5022,330.1078 L719.4712,330.1078 L719.4712,362.973 L713.0155,362.973 L713.0155,293.7213 L731.2087,293.7213 L734.9257,293.8191 C736.4907,293.8843 738.1861,294.0799 740.012,294.4059 C741.8378,294.732 743.6962,295.2537 745.5873,295.971 C747.4783,296.6883 749.1738,297.7316 750.6736,299.101 C752.1734,300.4704 753.4124,302.1984 754.3905,304.2851 C755.3686,306.3718 755.8577,308.9149 755.8577,311.9145 C755.8577,315.2402 755.2871,317.9789 754.1459,320.1308 C753.0048,322.2827 751.5702,324.027 749.8422,325.3638 C748.1141,326.7006 746.2068,327.695 744.1201,328.3471 C742.0334,328.9992 740.0446,329.4557 738.1535,329.7165 z M737.2685,323.3003 L738.376,323.1219 L739.5378,322.8832 L740.7531,322.5821 L742.0208,322.2169 L742.553,322.0448 L743.0316,321.8671 L743.949,321.457 L744.391,321.2238 L744.8237,320.971 L745.6659,320.4021 L745.8724,320.2459 L746.1301,320.0382 L746.4592,319.7453 L747.0924,319.0809 L747.6986,318.2935 L748.2789,317.3622 L748.6843,316.5283 L748.7708,316.2975 L748.8494,316.0639 L748.9294,315.797 L749.0009,315.5276 L749.0717,315.2228 L749.1335,314.916 L749.2422,314.2275 L749.287,313.8451 L749.3222,313.4617 L749.3506,313.0406 L749.3692,312.619 L749.3798,311.7277 L749.3724,311.3322 L749.3567,310.9369 L749.3063,310.2344 L749.2234,309.535 L749.1246,308.9506 L748.9949,308.3722 L748.8532,307.8773 L748.6978,307.4366 L748.6178,307.2399 L748.5314,307.046 L747.7729,305.6554 L747.2365,304.8938 L746.679,304.2482 L746.3912,303.9628 L746.2366,303.821 L746.0693,303.6745 L745.3857,303.1404 L744.6714,302.6815 L743.9145,302.2889 L743.5156,302.1156 L743.048,301.9362 L742.7847,301.8406 L740.6128,301.1659 L739.5671,300.9176 L739.054,300.8151 L738.79,300.7672 L738.5052,300.718 L737.4047,300.5479 L736.3668,300.4199 L735.3932,300.3325 L734.931,300.3036 L734.7062,300.2926 L734.4456,300.2817 L733.4321,300.244 L732.5984,300.2191 L731.8339,300.2033 L731.2087,300.1982 L719.4925,300.1982 L719.4925,323.6308 L734.8723,323.6308 z" stroke="#000000" stroke-width="0" fill="#1A1C20" fill-opacity="1" />
  <path d="M697.3654,293.7213 L697.3654,299.5901 L661.468,299.5901 L661.468,323.9349 L695.1157,323.9349 L695.1157,330.4119 L661.468,330.4119 L661.468,357.1042 L697.3654,357.1042 L697.3654,362.973 L655.0123,362.973 L655.0123,293.7213 z" stroke="#000000" stroke-width="0" fill="#1A1C20" fill-opacity="1" />
  <path d="M266.8588,350.9656 C263.6941,355.2473 260.033,358.319 255.8754,360.1806 C251.7178,362.0422 247.2189,362.973 242.3787,362.973 C237.3524,362.973 232.7449,362.1198 228.5563,360.4133 C224.3677,358.7068 220.7841,356.3177 217.8055,353.2461 C214.827,350.1745 212.5,346.5133 210.8245,342.2626 C209.1491,338.012 208.3113,333.3735 208.3113,328.3471 C208.3113,323.3208 209.1491,318.6978 210.8245,314.4782 C212.5,310.2585 214.827,306.6129 217.8055,303.5412 C220.7841,300.4696 224.3677,298.065 228.5563,296.3275 C232.7449,294.59 237.3524,293.7213 242.3787,293.7213 C246.8466,293.7213 251.0197,294.5125 254.898,296.0948 C258.7764,297.6772 262.1738,300.33 265.0903,304.0532 L259.9915,308.0473 L258.6616,306.4885 L257.2973,305.1517 L256.6024,304.5618 L255.8983,304.0213 L255.1841,303.528 L254.4583,303.08 L253.7191,302.675 L252.9643,302.3117 L252.5803,302.1452 L252.3792,302.0626 L252.1625,301.9761 L251.2883,301.6512 L249.5003,301.0997 L247.653,300.6783 L245.7382,300.3873 L243.7491,300.2288 L242.7247,300.2002 L242.1785,300.1988 L241.5826,300.207 L239.2692,300.335 L237.065,300.6126 L236.0104,300.8045 L234.9637,301.0358 L233.9552,301.2994 L232.9577,301.6019 L231.9908,301.937 L231.038,302.3102 L230.0956,302.7205 L229.1685,303.1644 L228.2895,303.6257 L227.4283,304.1196 L225.8093,305.1758 L224.3028,306.3354 L222.9008,307.6027 L222.5657,307.9371 L222.2348,308.2805 L221.5917,308.9872 L220.3866,310.4738 L219.2859,312.064 L218.2866,313.7654 L217.3876,315.5855 L216.9759,316.5423 L216.7815,317.028 L216.5989,317.5101 L215.9552,319.4892 L215.4501,321.5555 L215.0852,323.7166 L214.8633,325.9789 L214.7883,328.3471 L214.8633,330.7175 L215.0854,332.9862 L215.4511,335.1582 L215.9576,337.2398 L216.6038,339.2384 L216.7872,339.726 L216.8829,339.9701 L216.982,340.2164 L217.3942,341.1808 L218.2936,343.013 L219.2926,344.7222 L220.3919,346.316 L221.5942,347.8023 L222.2355,348.5075 L222.5653,348.8499 L222.8992,349.183 L223.5849,349.8271 L224.2959,350.4432 L225.0343,351.0331 L225.7956,351.5929 L227.407,352.6369 L228.2641,353.1236 L229.139,353.5775 L230.0619,354.0132 L231,354.415 L231.9559,354.7827 L232.9253,355.1127 L233.9264,355.4108 L234.9381,355.6706 L237.0468,356.0876 L239.2589,356.3613 L241.58,356.4875 L242.1779,356.4955 L242.4726,356.4959 L242.7533,356.4938 L243.8612,356.4601 L246.0084,356.274 L248.0707,355.9323 L250.0575,355.4372 L251.9789,354.7884 L252.9182,354.4056 L253.3701,354.205 L253.7922,354.0045 L254.625,353.5672 L255.4443,353.0797 L256.2521,352.5402 L257.0498,351.9461 L257.8383,351.2953 L258.6184,350.5855 L260.1528,348.9803 L260.9065,348.0812 L261.6502,347.1158 z" stroke="#000000" stroke-width="0" fill="#1A1C20" fill-opacity="1" />
  <path d="M412.0929,300.1982 L388.4327,300.1982 L388.4327,293.7213 L442.23,293.7213 L442.23,300.1982 L418.5699,300.1982 L418.5699,362.973 L412.0929,362.973 z" stroke="#000000" stroke-width="0" fill="#1A1C20" fill-opacity="1" />
  <path d="M323.0935,293.7213 L323.0935,299.5901 L287.1961,299.5901 L287.1961,323.9349 L320.8438,323.9349 L320.8438,330.4119 L287.1961,330.4119 L287.1961,357.1042 L323.0935,357.1042 L323.0935,362.973 L280.7404,362.973 L280.7404,293.7213 z" stroke="#000000" stroke-width="0" fill="#1A1C20" fill-opacity="1" />
  <path d="M618.8214,293.7213 C621.2341,293.7213 623.761,293.9984 626.4019,294.5527 C629.0429,295.107 631.4556,296.0688 633.6401,297.4382 C635.8246,298.8076 637.6179,300.6823 639.0198,303.0624 C640.4218,305.4425 641.1228,308.4258 641.1228,312.0123 C641.1228,315.1424 640.5522,317.8485 639.4111,320.1308 C638.27,322.4131 636.7375,324.2879 634.8138,325.7551 C632.8902,327.2223 630.6731,328.3145 628.1626,329.0318 C625.652,329.7491 623.0274,330.1078 620.2886,330.1078 L605.3232,330.1078 L605.3232,362.973 L598.8676,362.973 L598.8676,293.7213 z M618.8214,300.1982 L605.3445,300.1982 L605.3445,323.6308 L620.2886,323.6308 L621.6428,323.5932 L622.957,323.4814 L624.2346,323.2969 L625.4796,323.0404 L626.0911,322.8852 L626.3885,322.8026 L627.0854,322.5862 L628.1276,322.1925 L629.0873,321.7425 L629.9741,321.2363 L630.7979,320.6717 L630.9842,320.5291 L631.1575,320.3896 L631.491,320.1005 L632.1115,319.4757 L632.6801,318.7772 L633.2044,317.9888 L633.4509,317.5558 L633.5701,317.3288 L634.022,316.2712 L634.3044,315.2912 L634.5107,314.1584 L634.6263,312.861 L634.6454,312.1489 L634.644,311.7421 L634.6342,311.325 L634.5894,310.5356 L634.5137,309.8058 L634.41,309.1354 L634.2816,308.5232 L634.1316,307.9672 L633.963,307.4643 L633.7784,307.0107 L633.5795,306.6011 L633.4747,306.4111 L633.0383,305.7143 L632.408,304.8711 L632.0795,304.4941 L631.7412,304.1437 L631.0299,303.5135 L630.2598,302.9639 L629.7861,302.6758 L629.2908,302.3999 L628.2657,301.9036 L627.674,301.6591 L626.5634,301.2742 L625.3878,300.9609 L625.0829,300.8939 L624.028,300.6882 L622.6854,300.4748 L621.3349,300.3183 L620.0795,300.2291 z" stroke="#000000" stroke-width="0" fill="#1A1C20" fill-opacity="1" />
  <path d="M266.8588,350.9656 C263.6941,355.2473 260.033,358.319 255.8754,360.1806 C251.7178,362.0422 247.2189,362.973 242.3787,362.973 C237.3524,362.973 232.7449,362.1198 228.5563,360.4133 C224.3677,358.7068 220.7841,356.3177 217.8055,353.2461 C214.827,350.1745 212.5,346.5133 210.8245,342.2626 C209.1491,338.012 208.3113,333.3735 208.3113,328.3471 C208.3113,323.3208 209.1491,318.6978 210.8245,314.4782 C212.5,310.2585 214.827,306.6129 217.8055,303.5412 C220.7841,300.4696 224.3677,298.065 228.5563,296.3275 C232.7449,294.59 237.3524,293.7213 242.3787,293.7213 C246.8466,293.7213 251.0197,294.5125 254.898,296.0948 C258.7764,297.6772 262.1738,300.33 265.0903,304.0532 L259.9915,308.0473 L258.6616,306.4885 L257.2973,305.1517 L256.6024,304.5618 L255.8983,304.0213 L255.1841,303.528 L254.4583,303.08 L253.7191,302.675 L252.9643,302.3117 L252.5803,302.1452 L252.3792,302.0626 L252.1625,301.9761 L251.2883,301.6512 L249.5003,301.0997 L247.653,300.6783 L245.7382,300.3873 L243.7491,300.2288 L242.7247,300.2002 L242.1785,300.1988 L241.5826,300.207 L239.2692,300.335 L237.065,300.6126 L236.0104,300.8045 L234.9637,301.0358 L233.9552,301.2994 L232.9577,301.6019 L231.9908,301.937 L231.038,302.3102 L230.0956,302.7205 L229.1685,303.1644 L228.2895,303.6257 L227.4283,304.1196 L225.8093,305.1758 L224.3028,306.3354 L222.9008,307.6027 L222.5657,307.9371 L222.2348,308.2805 L221.5917,308.9872 L220.3866,310.4738 L219.2859,312.064 L218.2866,313.7654 L217.3876,315.5855 L216.9759,316.5423 L216.7815,317.028 L216.5989,317.5101 L215.9552,319.4892 L215.4501,321.5555 L215.0852,323.7166 L214.8633,325.9789 L214.7883,328.3471 L214.8633,330.7175 L215.0854,332.9862 L215.4511,335.1582 L215.9576,337.2398 L216.6038,339.2384 L216.7872,339.726 L216.8829,339.9701 L216.982,340.2164 L217.3942,341.1808 L218.2936,343.013 L219.2926,344.7222 L220.3919,346.316 L221.5942,347.8023 L222.2355,348.5075 L222.5653,348.8499 L222.8992,349.183 L223.5849,349.8271 L224.2959,350.4432 L225.0343,351.0331 L225.7956,351.5929 L227.407,352.6369 L228.2641,353.1236 L229.139,353.5775 L230.0619,354.0132 L231,354.415 L231.9559,354.7827 L232.9253,355.1127 L233.9264,355.4108 L234.9381,355.6706 L237.0468,356.0876 L239.2589,356.3613 L241.58,356.4875 L242.1779,356.4955 L242.4726,356.4959 L242.7533,356.4938 L243.8612,356.4601 L246.0084,356.274 L248.0707,355.9323 L250.0575,355.4372 L251.9789,354.7884 L252.9182,354.4056 L253.3701,354.205 L253.7922,354.0045 L254.625,353.5672 L255.4443,353.0797 L256.2521,352.5402 L257.0498,351.9461 L257.8383,351.2953 L258.6184,350.5855 L260.1528,348.9803 L260.9065,348.0812 L261.6502,347.1158 z" stroke="#1A1C20" stroke-width="0.24" fill="none" />
  <path d="M362.9966,323.3003 L364.1042,323.1219 L365.2659,322.8832 L366.4812,322.5821 L367.749,322.2169 L368.2811,322.0448 L368.7597,321.8671 L369.6772,321.457 L370.1191,321.2238 L370.5518,320.971 L371.394,320.4021 L371.6006,320.2459 L371.8582,320.0382 L372.1874,319.7453 L372.8205,319.0809 L373.4268,318.2935 L374.007,317.3622 L374.4124,316.5283 L374.4989,316.2975 L374.5775,316.0639 L374.6575,315.797 L374.729,315.5276 L374.7999,315.2228 L374.8616,314.916 L374.9703,314.2275 L375.0152,313.8451 L375.0503,313.4617 L375.0787,313.0406 L375.0973,312.619 L375.1079,311.7277 L375.1005,311.3322 L375.0848,310.9369 L375.0345,310.2344 L374.9516,309.535 L374.8528,308.9506 L374.723,308.3722 L374.5814,307.8773 L374.4259,307.4366 L374.3459,307.2399 L374.2595,307.046" stroke="#1A1C20" stroke-width="0.24" fill="none" />
  <path d="M374.015,306.5497 L373.501,305.6554 L372.9646,304.8938 L372.4071,304.2482 L372.1194,303.9628 L371.9647,303.821 L371.7975,303.6745 L371.1138,303.1404 L370.3996,302.6815 L369.6426,302.2889 L369.2437,302.1156 L368.7761,301.9362 L368.5128,301.8406 L366.3409,301.1659 L365.2952,300.9176 L364.782,300.8151 L364.5181,300.7672 L364.2334,300.718 L363.1328,300.5479 L362.0949,300.4199 L361.1213,300.3325 L360.6592,300.3036 L360.4343,300.2926 L360.1737,300.2817 L359.1603,300.244 L358.3265,300.2191 L357.562,300.2033 L356.9369,300.1982 L345.2206,300.1982 L345.2206,323.6308 L360.6005,323.6308 L362.9966,323.3003" stroke="#1A1C20" stroke-width="0.24" fill="none" />
  <path d="M363.8816,329.7165 C365.7727,329.4557 367.7615,328.9992 369.8482,328.3471 C371.9349,327.695 373.8423,326.7006 375.5703,325.3638 C377.2983,324.027 378.7329,322.2827 379.8741,320.1308 C381.0152,317.9789 381.5858,315.2402 381.5858,311.9145 C381.5858,308.9149 381.0967,306.3718 380.1186,304.2851 C379.1405,302.1984 377.9015,300.4704 376.4017,299.101 C374.9019,297.7316 373.2065,296.6883 371.3154,295.971 C369.4244,295.2537 367.5659,294.732 365.7401,294.4059 C363.9142,294.0799 362.2188,293.8843 360.6538,293.8191 L356.9369,293.7213 L338.7436,293.7213 L338.7436,362.973 L345.1993,362.973 L345.1993,330.1078 L357.2303,330.1078 L377.6801,364.5986 L383.0462,361.3474 z" stroke="#1A1C20" stroke-width="0.24" fill="none" />
  <path d="M523.4536,293.7213 L481.1005,293.7213 L481.1005,362.973 L523.4536,362.973 L523.4536,357.1042 L487.5562,357.1042 L487.5562,330.4119 L521.2039,330.4119 L521.2039,323.9349 L487.5775,323.9349 L487.5562,323.9349 L487.5562,299.5901 L523.4536,299.5901 z" stroke="#1A1C20" stroke-width="0.24" fill="none" />
  <path d="M412.0929,300.1982 L412.0929,362.973 L418.5699,362.973 L418.5699,300.1982 L442.23,300.1982 L442.23,293.7213 L388.4327,293.7213 L388.4327,300.1982 z" stroke="#1A1C20" stroke-width="0.24" fill="none" />
  <path d="M618.8214,293.7213 L598.8676,293.7213 L598.8676,362.973 L605.3232,362.973 L605.3232,330.1078 L620.2886,330.1078 C623.0274,330.1078 625.652,329.7491 628.1626,329.0318 C630.6731,328.3145 632.8902,327.2223 634.8138,325.7551 C636.7375,324.2879 638.27,322.4131 639.4111,320.1308 C640.5522,317.8485 641.1228,315.1424 641.1228,312.0123 C641.1228,308.4258 640.4218,305.4425 639.0198,303.0624 C637.6179,300.6823 635.8246,298.8076 633.6401,297.4382 C631.4556,296.0688 629.0429,295.107 626.4019,294.5527 C623.761,293.9984 621.2341,293.7213 618.8214,293.7213 z" stroke="#1A1C20" stroke-width="0.24" fill="none" />
  <path d="M618.8214,300.1982 L605.3445,300.1982 L605.3445,323.6308 L620.2886,323.6308 L621.6428,323.5932 L622.957,323.4814 L624.2346,323.2969 L625.4796,323.0404 L626.0911,322.8852 L626.3885,322.8026 L627.0854,322.5862 L628.1276,322.1925 L629.0873,321.7425 L629.9741,321.2363 L630.7979,320.6717 L630.9842,320.5291 L631.1575,320.3896 L631.491,320.1005 L632.1115,319.4757 L632.6801,318.7772 L633.2044,317.9888 L633.4509,317.5558 L633.5701,317.3288 L634.022,316.2712 L634.3044,315.2912 L634.5107,314.1584 L634.6263,312.861 L634.6454,312.1489 L634.644,311.7421 L634.6342,311.325 L634.5894,310.5356 L634.5137,309.8058 L634.41,309.1354 L634.2816,308.5232 L634.1316,307.9672 L633.963,307.4643 L633.7784,307.0107 L633.5795,306.6011 L633.4747,306.4111 L633.0383,305.7143 L632.408,304.8711 L632.0795,304.4941 L631.7412,304.1437 L631.0299,303.5135 L630.2598,302.9639 L629.7861,302.6758 L629.2908,302.3999 L628.2657,301.9036 L627.674,301.6591 L626.5634,301.2742 L625.3878,300.9609 L625.0829,300.8939 L624.028,300.6882 L622.6854,300.4748 L621.3349,300.3183 L620.0795,300.2291 z" stroke="#1A1C20" stroke-width="0.24" fill="none" />
  <path d="M585.7415,295.5661 L563.4207,326.7 L587.9096,361.0947 L582.6334,364.8513 L559.4314,332.2643 L536.0625,364.86 L530.7985,361.0861 L555.4604,326.687 L533.2808,295.5358 L538.5571,291.7792 L559.4496,321.1227 L580.4776,291.7922 z" stroke="#1A1C20" stroke-width="0.24" fill="none" />
  <path d="M697.3654,293.7213 L655.0123,293.7213 L655.0123,362.973 L697.3654,362.973 L697.3654,357.1042 L661.468,357.1042 L661.468,330.4119 L695.1157,330.4119 L695.1157,323.9349 L661.4893,323.9349 L661.468,323.9349 L661.468,299.5901 L697.3654,299.5901 z" stroke="#1A1C20" stroke-width="0.24" fill="none" />
  <path d="M786.3647,300.1982 L786.3647,362.973 L792.8417,362.973 L792.8417,300.1982 L816.5018,300.1982 L816.5018,293.7213 L762.7046,293.7213 L762.7046,300.1982 z" stroke="#1A1C20" stroke-width="0.24" fill="none" />
  <path d="M323.0935,293.7213 L280.7404,293.7213 L280.7404,362.973 L323.0935,362.973 L323.0935,357.1042 L287.1961,357.1042 L287.1961,330.4119 L320.8438,330.4119 L320.8438,323.9349 L287.2174,323.9349 L287.1961,323.9349 L287.1961,299.5901 L323.0935,299.5901 z" stroke="#1A1C20" stroke-width="0.24" fill="none" />
  <path d="M737.2685,323.3003 L738.376,323.1219 L739.5378,322.8832 L740.7531,322.5821 L742.0208,322.2169 L742.553,322.0448 L743.0316,321.8671 L743.949,321.457 L744.391,321.2238 L744.8237,320.971 L745.6659,320.4021 L745.8724,320.2459 L746.1301,320.0382 L746.4592,319.7453 L747.0924,319.0809 L747.6986,318.2935 L748.2789,317.3622 L748.6843,316.5283 L748.7708,316.2975 L748.8494,316.0639 L748.9294,315.797 L749.0009,315.5276 L749.0717,315.2228 L749.1335,314.916 L749.2422,314.2275 L749.287,313.8451 L749.3222,313.4617 L749.3506,313.0406 L749.3692,312.619 L749.3798,311.7277 L749.3724,311.3322 L749.3567,310.9369 L749.3063,310.2344 L749.2234,309.535 L749.1246,308.9506 L748.9949,308.3722 L748.8532,307.8773 L748.6978,307.4366 L748.6178,307.2399 L748.5314,307.046" stroke="#1A1C20" stroke-width="0.24" fill="none" />
  <path d="M748.2869,306.5497 L747.7729,305.6554 L747.2365,304.8938 L746.679,304.2482 L746.3912,303.9628 L746.2366,303.821 L746.0693,303.6745 L745.3857,303.1404 L744.6714,302.6815 L743.9145,302.2889 L743.5156,302.1156 L743.048,301.9362 L742.7847,301.8406 L740.6128,301.1659 L739.5671,300.9176 L739.054,300.8151 L738.79,300.7672 L738.5052,300.718 L737.4047,300.5479 L736.3668,300.4199 L735.3932,300.3325 L734.931,300.3036 L734.7062,300.2926 L734.4456,300.2817 L733.4321,300.244 L732.5984,300.2191 L731.8339,300.2033 L731.2087,300.1982 L719.4925,300.1982 L719.4925,323.6308 L734.8723,323.6308 L737.2685,323.3003" stroke="#1A1C20" stroke-width="0.24" fill="none" />
  <path d="M738.1535,329.7165 C740.0446,329.4557 742.0334,328.9992 744.1201,328.3471 C746.2068,327.695 748.1141,326.7006 749.8422,325.3638 C751.5702,324.027 753.0048,322.2827 754.1459,320.1308 C755.2871,317.9789 755.8577,315.2402 755.8577,311.9145 C755.8577,308.9149 755.3686,306.3718 754.3905,304.2851 C753.4124,302.1984 752.1734,300.4704 750.6736,299.101 C749.1738,297.7316 747.4783,296.6883 745.5873,295.971 C743.6962,295.2537 741.8378,294.732 740.012,294.4059 C738.1861,294.0799 736.4907,293.8843 734.9257,293.8191 L731.2087,293.7213 L713.0155,293.7213 L713.0155,362.973 L719.4712,362.973 L719.4712,330.1078 L731.5022,330.1078 L751.952,364.5986 L757.3181,361.3474 z" stroke="#1A1C20" stroke-width="0.24" fill="none" />
  <path d="M187.1677,267.3696 L190.0879,257.5795 L173.9467,231.1848 L175.3282,230.3401 L191.8459,257.3506 L188.5172,268.5103 L192.6612,272.0129 L192.6612,283.6927 L184.9305,276.8405 L183.7828,272.7278 L174.7385,287.0949 L162.8548,305.9726 L188.6812,309.6023 L186.0938,321.461 L179.7657,320.0803 L180.8645,315.0443 L152.0406,310.9934 L166.5799,287.8973 L164.3975,287.6593 L154.4373,296.106 L146.9802,318.4641 L161.6194,333.6234 L165.2785,362.2607 L158.8537,363.0817 L155.4671,336.5764 L139.5949,320.1403 L146.2591,300.1368 L139.6658,301.9382 L134.2403,309.8942 L103.5485,339.2638 L72.53872,340.694 L55.44879,350.5594 L52.21095,344.9513 L183.0182,269.4297 L184.2511,266.5837 L186.0849,266.4545 z" stroke="#000000" stroke-width="0" fill="#DA2102" fill-opacity="1" />
  <path d="M187.1677,267.3697 L190.0879,257.5795 L173.9468,231.1849 L175.3282,230.3401 L191.8459,257.3506 L188.5173,268.5103 L192.6612,272.0129 L192.6612,283.6927 L184.9305,276.8405 L183.7828,272.7278 L174.7385,287.0949 L162.8548,305.9727 L188.6813,309.6023 L186.0938,321.461 L179.7657,320.0803 L180.8645,315.0444 L152.0407,310.9934 L166.5799,287.8974 L164.3976,287.6594 L154.4373,296.106 L154.4276,296.1101 L146.9803,318.4641 L161.6194,333.6234 L165.2785,362.2608 L158.8538,363.0817 L155.4671,336.5764 L139.5949,320.1403 L146.2591,300.1368 L139.6658,301.9382 L134.2404,309.8943 L103.5485,339.2639 L72.53874,340.6941 L55.44883,350.5595 L52.21098,344.9514 L183.0182,269.4297 L184.2511,266.5838 L186.085,266.4545 z" stroke="#DA2102" stroke-width="0.24" fill="none" />
  <text x="-17817.6861226509" y="57980.2506325135" transform="rotate(79 -17817.6861226509,57980.2506325135)" font-family="Arial" text-anchor="middle" fill="#FF0000" font-size="38.9909248352051">38.0°</text>
  <polygon fill="#FF0000" fill-opacity="1" points="-17813.4,58277.9 -17811.58,58277.9 -17809.81,58277.43 -17808.23,58276.5 -17806.93,58275.22 -17806.01,58273.63 -17805.54,58271.87 -17805.54,58270.05 -17806.01,58268.27 -17806.93,58266.7 -17808.22,58265.39 -17809.8,58264.48 -17811.57,58264 -17813.39,58264 -17815.16,58264.48 -17816.74,58265.4 -17818.04,58266.68 -17818.96,58268.27 -17819.43,58270.03 -17819.43,58271.86 -17818.96,58273.63 -17818.04,58275.21 -17816.75,58276.51 -17815.16,58277.42" xmlns="" />
  <polygon fill="#FF0000" fill-opacity="1" points="-17924.46,57706.56 -17925.92,57707.66 -17927.04,57709.11 -17927.75,57710.79 -17928.01,57712.6 -17927.79,57714.42 -17927.1,57716.11 -17926,57717.57 -17924.56,57718.7 -17922.87,57719.4 -17921.06,57719.66 -17919.24,57719.44 -17917.55,57718.75 -17916.1,57717.65 -17914.97,57716.21 -17914.26,57714.52 -17914,57712.71 -17914.23,57710.89 -17914.91,57709.2 -17916.01,57707.75 -17917.46,57706.62 -17919.14,57705.91 -17920.95,57705.65 -17922.77,57705.88" xmlns="" />
  <path d="M-17812.48,58270.95 C-17799.14,58177.13 -17801.44,58078.34 -17820.03,57982.72 C-17838.62,57887.09 -17873.49,57794.64 -17921,57712.65" stroke="#FF0000" stroke-width="0.24" fill="none" />
  <text x="-17902.4994430732" y="58545.5223291232" transform="rotate(-62.96639 -17902.4994430732,58545.5223291232)" font-family="Arial" text-anchor="middle" fill="#FF0000" font-size="38.9909248352051">38.0°</text>
  <polygon fill="#FF0000" fill-opacity="1" points="-18076.08,58782.52 -18074.64,58783.64 -18072.95,58784.36 -18071.14,58784.61 -18069.33,58784.39 -18067.63,58783.71 -18066.17,58782.61 -18065.04,58781.18 -18064.32,58779.49 -18064.08,58777.68 -18064.29,58775.87 -18064.97,58774.16 -18066.07,58772.71 -18067.5,58771.58 -18069.19,58770.86 -18071,58770.62 -18072.82,58770.82 -18074.52,58771.51 -18075.98,58772.61 -18077.1,58774.04 -18077.82,58775.73 -18078.07,58777.54 -18077.86,58779.36 -18077.17,58781.06" xmlns="" />
  <polygon fill="#FF0000" fill-opacity="1" points="-17811.5,58264 -17813.32,58263.97 -17815.1,58264.41 -17816.69,58265.31 -17818.02,58266.57 -17818.96,58268.14 -17819.46,58269.89 -17819.49,58271.72 -17819.05,58273.5 -17818.15,58275.09 -17816.89,58276.41 -17815.32,58277.36 -17813.57,58277.86 -17811.74,58277.89 -17809.96,58277.45 -17808.37,58276.55 -17807.05,58275.29 -17806.11,58273.72 -17805.6,58271.96 -17805.57,58270.14 -17806.01,58268.36 -17806.91,58266.77 -17808.17,58265.45 -17809.74,58264.5" xmlns="" />
  <path d="M-18071.07,58777.61 C-18002.75,58711.92 -17943.69,58632.68 -17899.41,58545.9 C-17855.12,58459.11 -17825.63,58364.79 -17812.53,58270.93" stroke="#FF0000" stroke-width="0.24" fill="none" />
  <text x="-13211.5913718912" y="6770.34761915317" transform="rotate(-62.96639 -13211.5913718912,6770.34761915317)" font-family="Arial" text-anchor="middle" fill="#FF0000" font-size="38.9909248352051">38.0°</text>
  <polygon fill="#FF0000" fill-opacity="1" points="-13385.17,7007.34 -13383.73,7008.464 -13382.04,7009.185 -13380.23,7009.431 -13378.42,7009.221 -13376.72,7008.535 -13375.26,7007.439 -13374.14,7006.004 -13373.42,7004.317 -13373.17,7002.506 -13373.38,7000.691 -13374.07,6998.99 -13375.16,6997.532 -13376.6,6996.408 -13378.28,6995.688 -13380.09,6995.441 -13381.91,6995.651 -13383.61,6996.337 -13385.07,6997.433 -13386.19,6998.868 -13386.91,7000.555 -13387.16,7002.366 -13386.95,7004.182 -13386.26,7005.883" xmlns="" />
  <polygon fill="#FF0000" fill-opacity="1" points="-13120.59,6488.827 -13122.41,6488.795 -13124.19,6489.238 -13125.79,6490.133 -13127.11,6491.395 -13128.05,6492.969 -13128.55,6494.721 -13128.58,6496.544 -13128.14,6498.325 -13127.25,6499.917 -13125.98,6501.239 -13124.41,6502.183 -13122.66,6502.685 -13120.83,6502.717 -13119.05,6502.274 -13117.46,6501.378 -13116.14,6500.117 -13115.2,6498.543 -13114.69,6496.791 -13114.66,6494.968 -13115.11,6493.188 -13116,6491.594 -13117.26,6490.272 -13118.84,6489.329" xmlns="" />
  <path d="M-13380.16,7002.436 C-13311.84,6936.75 -13252.78,6857.51 -13208.5,6770.728 C-13164.22,6683.945 -13134.72,6589.62 -13121.62,6495.755" stroke="#FF0000" stroke-width="0.24" fill="none" />
  <text x="-54858.7202216622" y="55798.4027634152" transform="rotate(1.790801 -54858.7202216622,55798.4027634152)" font-family="Arial" fill="#000000" font-size="155.96369934082">b</text>
  <text x="-7636.23078558751" y="6748.30708099823" transform="rotate(-9.7401 -7636.23078558751,6748.30708099823)" font-family="Arial" text-anchor="middle" fill="#000000" font-size="46.7891120910645">90.0°</text>
  <polygon fill="#000000" fill-opacity="1" points="-7701.806,6795.1 -7700.86,6795.649 -7699.798,6795.938 -7698.702,6795.936 -7697.64,6795.661 -7696.686,6795.112 -7695.91,6794.341 -7695.36,6793.396 -7695.071,6792.333 -7695.075,6791.237 -7695.349,6790.175 -7695.897,6789.221 -7696.668,6788.445 -7697.614,6787.896 -7698.676,6787.606 -7699.773,6787.61 -7700.834,6787.884 -7701.789,6788.433 -7702.565,6789.204 -7703.114,6790.149 -7703.403,6791.211 -7703.4,6792.308 -7703.126,6793.37 -7702.577,6794.324" xmlns="" />
  <polygon fill="#000000" fill-opacity="1" points="-7556.283,6770.121 -7555.814,6769.132 -7555.616,6768.049 -7555.711,6766.957 -7556.074,6765.922 -7556.7,6765.017 -7557.534,6764.309 -7558.522,6763.84 -7559.605,6763.642 -7560.697,6763.737 -7561.732,6764.1 -7562.637,6764.726 -7563.346,6765.56 -7563.814,6766.548 -7564.013,6767.631 -7563.917,6768.723 -7563.555,6769.758 -7562.928,6770.663 -7562.094,6771.372 -7561.106,6771.84 -7560.023,6772.039 -7558.931,6771.943 -7557.896,6771.581 -7556.991,6770.954" xmlns="" />
  <path d="M-7699.237,6791.772 C-7692.458,6782.158 -7683.344,6772.985 -7672.246,6765.761 C-7661.148,6758.537 -7648.067,6753.262 -7634.481,6750.93 C-7620.896,6748.598 -7606.804,6749.208 -7593.933,6752.318 C-7581.062,6755.428 -7569.41,6761.037 -7559.813,6767.839" stroke="#000000" stroke-width="0.24" fill="none" />
  <text x="-53371.4614207793" y="56015.2259952329" font-family="Arial" fill="#000000" font-size="155.96369934082">a</text>
  <text x="-53701.4907587075" y="55986.0981142623" transform="rotate(2.13985 -53701.4907587075,55986.0981142623)" font-family="Arial" fill="#000000" font-size="155.96369934082">b</text>
  <text x="-5634.75341930515" y="6751.29801973133" transform="rotate(13.78907 -5634.75341930515,6751.29801973133)" font-family="Arial" text-anchor="middle" fill="#000000" font-size="46.7891120910645">90.0°</text>
  <polygon fill="#000000" fill-opacity="1" points="-5569.096,6803.476 -5568.271,6802.756 -5567.657,6801.843 -5567.309,6800.803 -5567.228,6799.71 -5567.441,6798.63 -5567.922,6797.647 -5568.642,6796.824 -5569.555,6796.209 -5570.595,6795.86 -5571.688,6795.78 -5572.768,6795.993 -5573.75,6796.475 -5574.575,6797.194 -5575.189,6798.107 -5575.538,6799.147 -5575.618,6800.24 -5575.405,6801.32 -5574.924,6802.303 -5574.204,6803.126 -5573.291,6803.741 -5572.251,6804.09 -5571.158,6804.17 -5570.078,6803.957" xmlns="" />
  <polygon fill="#000000" fill-opacity="1" points="-5712.492,6768.283 -5711.844,6769.165 -5710.986,6769.854 -5709.979,6770.288 -5708.896,6770.46 -5707.802,6770.339 -5706.783,6769.941 -5705.902,6769.293 -5705.213,6768.435 -5704.778,6767.429 -5704.606,6766.346 -5704.728,6765.251 -5705.125,6764.232 -5705.772,6763.351 -5706.631,6762.662 -5707.638,6762.227 -5708.721,6762.055 -5709.814,6762.177 -5710.834,6762.574 -5711.715,6763.222 -5712.404,6764.081 -5712.839,6765.087 -5713.011,6766.17 -5712.89,6767.264" xmlns="" />
  <path d="M-5571.422,6799.975 C-5577.505,6789.906 -5585.949,6780.112 -5596.509,6772.123 C-5607.069,6764.133 -5619.745,6757.948 -5633.132,6754.662 C-5646.52,6751.377 -5660.619,6750.991 -5673.678,6753.184 C-5686.736,6755.377 -5698.755,6760.149 -5708.808,6766.257" stroke="#000000" stroke-width="0.24" fill="none" />
  <text x="-51095.3525873342" y="55252.701154808" font-family="Arial" fill="#000000" font-size="155.96369934082">b</text>
  <text x="-9395.75737959088" y="6161.63413245131" font-family="Arial" fill="#000000" font-size="155.96369934082">a</text>
  <text x="-8873.57407773491" y="6751.29801973131" transform="rotate(13.78907 -8873.57407773491,6751.29801973131)" font-family="Arial" text-anchor="middle" fill="#000000" font-size="46.7891120910645">90.0°</text>
  <polygon fill="#000000" fill-opacity="1" points="-8807.916,6803.476 -8807.092,6802.756 -8806.478,6801.843 -8806.129,6800.803 -8806.049,6799.71 -8806.262,6798.63 -8806.743,6797.647 -8807.463,6796.824 -8808.376,6796.209 -8809.416,6795.86 -8810.509,6795.78 -8811.589,6795.993 -8812.571,6796.475 -8813.396,6797.194 -8814.01,6798.107 -8814.358,6799.147 -8814.439,6800.24 -8814.226,6801.32 -8813.744,6802.303 -8813.024,6803.126 -8812.111,6803.741 -8811.072,6804.09 -8809.979,6804.17 -8808.898,6803.957" xmlns="" />
  <polygon fill="#000000" fill-opacity="1" points="-8951.313,6768.283 -8950.665,6769.165 -8949.807,6769.854 -8948.8,6770.288 -8947.717,6770.46 -8946.623,6770.339 -8945.604,6769.941 -8944.723,6769.293 -8944.033,6768.435 -8943.599,6767.429 -8943.427,6766.346 -8943.548,6765.251 -8943.945,6764.232 -8944.594,6763.351 -8945.452,6762.662 -8946.458,6762.227 -8947.541,6762.055 -8948.636,6762.177 -8949.654,6762.574 -8950.536,6763.222 -8951.225,6764.081 -8951.66,6765.087 -8951.832,6766.17 -8951.71,6767.264" xmlns="" />
  <path d="M-8810.243,6799.975 C-8816.325,6789.906 -8824.77,6780.112 -8835.329,6772.123 C-8845.89,6764.133 -8858.565,6757.948 -8871.952,6754.662 C-8885.34,6751.377 -8899.439,6750.991 -8912.498,6753.184 C-8925.557,6755.377 -8937.575,6760.149 -8947.628,6766.257" stroke="#000000" stroke-width="0.24" fill="none" />
  <text x="-8265.62286617022" y="6323.56026418918" font-family="Arial" fill="#000000" font-size="155.96369934082">b</text>
  <text x="-17901.0710448145" y="57939.2989295865" transform="rotate(75 -17901.0710448145,57939.2989295865)" font-family="Arial" text-anchor="middle" fill="#000000" font-size="38.9909248352051">30.0°</text>
  <polygon fill="#000000" fill-opacity="1" points="-17875.87,58156.38 -17874.06,58156.12 -17872.37,58155.41 -17870.94,58154.27 -17869.83,58152.82 -17869.15,58151.12 -17868.92,58149.31 -17869.18,58147.5 -17869.89,58145.81 -17871.03,58144.38 -17872.48,58143.27 -17874.18,58142.59 -17875.99,58142.36 -17877.79,58142.62 -17879.48,58143.33 -17880.92,58144.47 -17882.03,58145.92 -17882.71,58147.62 -17882.94,58149.43 -17882.68,58151.24 -17881.96,58152.93 -17880.83,58154.36 -17879.38,58155.47 -17877.68,58156.15" xmlns="" />
  <polygon fill="#000000" fill-opacity="1" points="-17986.76,57742.53 -17988.21,57743.63 -17989.34,57745.07 -17990.05,57746.76 -17990.31,57748.57 -17990.09,57750.39 -17989.41,57752.07 -17988.31,57753.53 -17986.86,57754.66 -17985.18,57755.37 -17983.37,57755.63 -17981.55,57755.41 -17979.86,57754.72 -17978.4,57753.63 -17977.27,57752.18 -17976.57,57750.5 -17976.3,57748.69 -17976.53,57746.87 -17977.21,57745.18 -17978.31,57743.72 -17979.75,57742.59 -17981.44,57741.89 -17983.25,57741.62 -17985.07,57741.84" xmlns="" />
  <path d="M-17875.93,58149.36 C-17875.38,58011 -17913.65,57868.17 -17983.31,57748.62" stroke="#000000" stroke-width="0.24" fill="none" />
  <text x="-17880.8764508628" y="58206.1497916852" transform="rotate(-86 -17880.8764508628,58206.1497916852)" font-family="Arial" text-anchor="middle" fill="#000000" font-size="38.9909248352051">8.0°</text>
  <polygon fill="#000000" fill-opacity="1" points="-17884.64,58267.88 -17882.82,58267.88 -17881.05,58267.41 -17879.47,58266.49 -17878.17,58265.2 -17877.26,58263.61 -17876.79,58261.85 -17876.79,58260.03 -17877.26,58258.26 -17878.18,58256.68 -17879.46,58255.38 -17881.05,58254.46 -17882.82,58253.99 -17884.64,58253.99 -17886.41,58254.46 -17887.99,58255.39 -17889.29,58256.67 -17890.21,58258.26 -17890.68,58260.02 -17890.68,58261.85 -17890.2,58263.62 -17889.28,58265.2 -17888,58266.5 -17886.41,58267.41" xmlns="" />
  <polygon fill="#000000" fill-opacity="1" points="-17875.87,58142.36 -17877.68,58142.59 -17879.38,58143.27 -17880.83,58144.38 -17881.96,58145.81 -17882.68,58147.5 -17882.94,58149.31 -17882.71,58151.12 -17882.03,58152.82 -17880.92,58154.27 -17879.48,58155.41 -17877.79,58156.12 -17875.99,58156.38 -17874.18,58156.15 -17872.48,58155.47 -17871.03,58154.36 -17869.89,58152.93 -17869.18,58151.24 -17868.92,58149.43 -17869.15,58147.62 -17869.83,58145.92 -17870.94,58144.47 -17872.37,58143.33 -17874.06,58142.62" xmlns="" />
  <path d="M-17883.73,58260.93 C-17878.54,58224.02 -17875.92,58186.64 -17875.93,58149.36" stroke="#000000" stroke-width="0.24" fill="none" />
  <text x="-18404.7547262224" y="58713.9075472516" transform="rotate(1.790801 -18404.7547262224,58713.9075472516)" font-family="Arial" fill="#000000" font-size="66.5445098876953">c</text>
  <text x="-11906.1709744644" y="6865.06757758657" transform="rotate(1.790801 -11906.1709744644,6865.06757758657)" font-family="Arial" fill="#000000" font-size="138.634414672852">b</text>
  <text x="-18921.1035753346" y="58511.6661612991" transform="rotate(1.790801 -18921.1035753346,58511.6661612991)" font-family="Arial" fill="#000000" font-size="66.5445098876953">a</text>
  <text x="-18236.84485073" y="58354.1963933451" transform="rotate(1.790801 -18236.84485073,58354.1963933451)" font-family="Arial" fill="#000000" font-size="66.5445098876953">b</text>
  <text x="-18139.9950578358" y="58030.4547652268" transform="rotate(1.790801 -18139.9950578358,58030.4547652268)" font-family="Arial" fill="#000000" font-size="66.5445098876953">c</text>
  <text x="-2836.45684398706" y="685.984042514731" font-family="Helvetica" fill="#000000" font-size="19.4954624176025">1024 X 1024 PX</text>
  <text x="-18298.3902830462" y="57882.5841901606" transform="rotate(1.790801 -18298.3902830462,57882.5841901606)" font-family="Arial" fill="#000000" font-size="66.5445098876953">b</text>
  <text x="-2836.45684398706" y="1330.19316392278" font-family="Helvetica" fill="#000000" font-size="19.4954624176025">32 X 32 PX</text>
  <text x="-19182.5239797476" y="58524.3898710125" transform="rotate(1.790801 -19182.5239797476,58524.3898710125)" font-family="Arial" fill="#000000" font-size="66.5445098876953">c</text>
  <text x="-2930.86337783408" y="2425.64238030396" font-family="Times-Roman" fill="#000000" font-size="19.6019954681396">Profile image: </text>
  <text x="-2805.74751592134" y="2425.64238030396" font-family="Times-Bold" font-weight="bold" fill="#000000" font-size="19.6019954681396">400 × 400 px</text>
  <text x="-2930.86337783408" y="2448.06216265895" font-family="Times-Roman" fill="#000000" font-size="19.6019954681396">Cover image: </text>
  <text x="-2809.04003860326" y="2448.06216265895" font-family="Times-Bold" font-weight="bold" fill="#000000" font-size="19.6019954681396">820 × 312 px</text>
  <text x="-2930.86337783408" y="5509.17268271115" font-family="Times-Roman" fill="#000000" font-size="19.6019954681396">Profile image: </text>
  <text x="-2805.74751592134" y="5509.17268271115" font-family="Times-Bold" font-weight="bold" fill="#000000" font-size="19.6019954681396">320 × 320 px</text>
  <text x="-2930.86337783408" y="5531.59246506614" font-family="Times-Roman" fill="#000000" font-size="19.6019954681396">Export at 1080 × 1080 px for clarity</text>
  <text x="-18319.360000218" y="57493.5416547521" transform="rotate(1.790801 -18319.360000218,57493.5416547521)" font-family="Arial" fill="#000000" font-size="66.5445098876953">d</text>
  <text x="-10816.2388561502" y="7061.12772350765" transform="rotate(1.790801 -10816.2388561502,7061.12772350765)" font-family="Arial" fill="#000000" font-size="138.634414672852">b</text>
  <text x="5762.28016255377" y="6299.90202857511" font-family="Helvetica" font-weight="bold" fill="#000000" font-size="19.3900814056396">IG, TIktok, Favicon</text>
  <text x="-13210.1629736326" y="6164.12421961638" transform="rotate(75 -13210.1629736326,6164.12421961638)" font-family="Arial" text-anchor="middle" fill="#000000" font-size="38.9909248352051">30.0°</text>
  <polygon fill="#000000" fill-opacity="1" points="-13184.96,6381.201 -13183.15,6380.947 -13181.46,6380.232 -13180.03,6379.098 -13178.92,6377.645 -13178.24,6375.943 -13178.01,6374.134 -13178.27,6372.329 -13178.98,6370.639 -13180.12,6369.206 -13181.57,6368.098 -13183.27,6367.412 -13185.08,6367.189 -13186.89,6367.443 -13188.58,6368.159 -13190.01,6369.292 -13191.12,6370.745 -13191.8,6372.447 -13192.03,6374.256 -13191.77,6376.062 -13191.06,6377.751 -13189.92,6379.185 -13188.47,6380.293 -13186.77,6380.979" xmlns="" />
  <polygon fill="#000000" fill-opacity="1" points="-13295.85,5967.354 -13297.31,5968.451 -13298.44,5969.896 -13299.14,5971.582 -13299.41,5973.39 -13299.18,5975.211 -13298.5,5976.901 -13297.4,5978.357 -13295.96,5979.488 -13294.27,5980.192 -13292.46,5980.457 -13290.64,5980.232 -13288.95,5979.549 -13287.49,5978.452 -13286.36,5977.007 -13285.66,5975.321 -13285.39,5973.513 -13285.62,5971.692 -13286.3,5970.001 -13287.4,5968.545 -13288.84,5967.415 -13290.53,5966.711 -13292.34,5966.446 -13294.16,5966.671" xmlns="" />
  <path d="M-13185.02,6374.195 C-13184.47,6235.829 -13222.74,6093.004 -13292.4,5973.451" stroke="#000000" stroke-width="0.24" fill="none" />
  <text x="-13713.8466550405" y="6938.73283728156" transform="rotate(1.790801 -13713.8466550405,6938.73283728156)" font-family="Arial" fill="#000000" font-size="66.5445098876953">c</text>
  <text x="-13695.3191614539" y="6674.34910702629" transform="rotate(1.790801 -13695.3191614539,6674.34910702629)" font-family="Arial" fill="#000000" font-size="66.5445098876953">a</text>
  <text x="-14230.1955041527" y="6736.49145132906" transform="rotate(1.790801 -14230.1955041527,6736.49145132906)" font-family="Arial" fill="#000000" font-size="66.5445098876953">a</text>
  <text x="1322.20562407978" y="4842.07911547787" font-family="Helvetica" font-weight="bold" fill="#000000" font-size="38.7801628112793">Mantis </text>
  <text x="1322.20562407978" y="4886.91868018785" font-family="Helvetica" font-weight="bold" fill="#000000" font-size="38.7801628112793">Hax: #2A1BFF</text>
  <text x="1322.20562407978" y="4931.75824489783" font-family="Helvetica" fill="#000000" font-size="38.9909248352051">ELECTRIC COBALT INK</text>
  <text x="1322.20562407978" y="4976.59780960779" font-family="Helvetica" fill="#000000" font-size="38.9909248352051">striking digital</text>
  <text x="2327.82192228391" y="4842.07911547787" font-family="Helvetica" font-weight="bold" fill="#000000" font-size="38.7801628112793">Mantis </text>
  <text x="2327.82192228391" y="4886.91868018785" font-family="Helvetica" font-weight="bold" fill="#000000" font-size="38.7801628112793">Hax: #3F00A8</text>
  <text x="2327.82192228391" y="4931.75824489783" font-family="Helvetica" fill="#000000" font-size="38.9909248352051">PREMIUM VIOLET</text>
  <text x="2327.82192228391" y="4976.59780960779" font-family="Helvetica" fill="#000000" font-size="38.9909248352051">Authority with character. </text>
  <text x="2327.82192228391" y="5021.43737431777" font-family="Helvetica" fill="#000000" font-size="38.9909248352051">Bold but refined.</text>
  <text x="3320.1267062484" y="4842.0791154779" font-family="Helvetica" font-weight="bold" fill="#000000" font-size="38.7801628112793">Mantis </text>
  <text x="3320.1267062484" y="4886.91868018786" font-family="Helvetica" font-weight="bold" fill="#000000" font-size="38.7801628112793">Hax: #3A1BDA</text>
  <text x="3320.1267062484" y="4931.75824489784" font-family="Helvetica" fill="#000000" font-size="38.9909248352051">MODERN INDIGO</text>
  <text x="3320.1267062484" y="4976.59780960782" font-family="Helvetica" fill="#000000" font-size="38.9909248352051">Modern certification platform. </text>
  <text x="3320.1267062484" y="5021.43737431779" font-family="Helvetica" fill="#000000" font-size="38.9909248352051">Structured innovation.</text>
  <text x="3314.97435448551" y="5106.56650597306" font-family="Helvetica" font-weight="bold" fill="#000000" font-size="38.7801628112793">Background grey</text>
  <text x="3314.97435448551" y="5151.40607068304" font-family="Helvetica" fill="#000000" font-size="38.9909248352051">Hax: #F1F3F8</text>
  <text x="3314.97435448551" y="5225.78821599684" font-family="Helvetica" font-weight="bold" fill="#000000" font-size="38.7801628112793">Wordmark</text>
  <text x="3314.97435448551" y="5270.62778070682" font-family="Helvetica" fill="#000000" font-size="38.9909248352051">Hax: #1A1C20</text>
  <text x="2322.66957052101" y="5106.56650597304" font-family="Helvetica" font-weight="bold" fill="#000000" font-size="38.7801628112793">Background grey</text>
  <text x="2322.66957052101" y="5151.406070683" font-family="Helvetica" fill="#000000" font-size="38.9909248352051">Hax: #F1F3F8</text>
  <text x="2322.66957052101" y="5225.78821599683" font-family="Helvetica" font-weight="bold" fill="#000000" font-size="38.7801628112793">Wordmark</text>
  <text x="2322.66957052101" y="5270.62778070681" font-family="Helvetica" fill="#000000" font-size="38.9909248352051">Hax: #1A1C20</text>
  <text x="1317.05327231689" y="5225.78821599683" font-family="Helvetica" font-weight="bold" fill="#000000" font-size="38.7801628112793">Wordmark</text>
  <text x="1317.05327231689" y="5270.62778070681" font-family="Helvetica" fill="#000000" font-size="38.9909248352051">Hax: #1A1C20</text>
  <text x="302.866895680447" y="5106.56650597304" font-family="Helvetica" font-weight="bold" fill="#000000" font-size="38.7801628112793">Background grey</text>
  <text x="302.866895680447" y="5151.406070683" font-family="Helvetica" fill="#000000" font-size="38.9909248352051">Hax: #F1F3F8</text>
  <text x="302.866895680447" y="5225.78821599683" font-family="Helvetica" font-weight="bold" fill="#000000" font-size="38.7801628112793">Wordmark</text>
  <text x="302.866895680447" y="5270.62778070681" font-family="Helvetica" fill="#000000" font-size="38.9909248352051">Hax: #1A1C20</text>
  <text x="-13449.0869866539" y="6255.28005525673" transform="rotate(1.790801 -13449.0869866539,6255.28005525673)" font-family="Arial" fill="#000000" font-size="66.5445098876953">c</text>
  <text x="-13545.6285700151" y="6027.74716911143" transform="rotate(1.790801 -13545.6285700151,6027.74716911143)" font-family="Arial" fill="#000000" font-size="66.5445098876953">c</text>
  <text x="-13607.4822118643" y="6107.4094801905" transform="rotate(1.790801 -13607.4822118643,6107.4094801905)" font-family="Arial" fill="#000000" font-size="66.5445098876953">b</text>
  <text x="-13628.4519290361" y="5718.36694478204" transform="rotate(1.790801 -13628.4519290361,5718.36694478204)" font-family="Arial" fill="#000000" font-size="66.5445098876953">d</text>
  <text x="-14696.1375469504" y="6760.31745081823" transform="rotate(1.790801 -14696.1375469504,6760.31745081823)" font-family="Arial" fill="#000000" font-size="66.5445098876953">d</text>
  <text x="-2930.86337783408" y="5959.44125986268" font-family="Helvetica" font-weight="bold" fill="#000000" font-size="19.3900814056396">•</text>
  <text x="-2924.04655211804" y="5959.44125986268" font-family="Helvetica" font-weight="bold" fill="#000000" font-size="19.3900814056396">Banner/Cover Image Size: </text>
  <text x="-2679.70122145185" y="5959.44125986268" font-family="Helvetica" fill="#000000" font-size="19.4954624176025">1128 x 191 pixels</text>
  <text x="-2930.86337783408" y="5981.86104221768" font-family="Helvetica" font-weight="bold" fill="#000000" font-size="19.3900814056396">•</text>
  <text x="-2924.04655211804" y="5981.86104221768" font-family="Helvetica" font-weight="bold" fill="#000000" font-size="19.3900814056396">Company Logo Size:</text>
  <text x="-2732.56949200517" y="5981.86104221768" font-family="Helvetica" fill="#000000" font-size="19.4954624176025"> 300 x 300 pixels</text>
  <text x="-3243.06162315824" y="5989.72538098315" font-family="Helvetica" font-weight="bold" fill="#000000" font-size="38.7801628112793">LINKED In</text>
  <text x="-3243.06162315824" y="5539.45680383161" font-family="Helvetica" font-weight="bold" fill="#000000" font-size="38.7801628112793">Instagram</text>
  <text x="-3243.06162315824" y="4534.97128369931" font-family="Helvetica" font-weight="bold" fill="#000000" font-size="38.7801628112793">Tiktok</text>
  <text x="-6156.93672116114" y="6161.63413245131" font-family="Arial" fill="#000000" font-size="155.96369934082">a</text>
  <text x="-3243.06162315824" y="3410.70712001787" font-family="Helvetica" font-weight="bold" fill="#000000" font-size="38.7801628112793">X</text>
  <text x="-2930.86337783408" y="3380.4229988974" font-family="Times-Roman" fill="#000000" font-size="19.6019954681396">Profile image: </text>
  <text x="-2805.74751592134" y="3380.4229988974" font-family="Times-Bold" font-weight="bold" fill="#000000" font-size="19.6019954681396">400 × 400 px</text>
  <text x="-2930.86337783408" y="3402.84278125239" font-family="Times-Roman" fill="#000000" font-size="19.6019954681396">Header: </text>
  <text x="-2856.20734027905" y="3402.84278125239" font-family="Times-Bold" font-weight="bold" fill="#000000" font-size="19.6019954681396">1500 × 500 px</text>
  <text x="-3243.06162315824" y="2455.9265014244" font-family="Helvetica" font-weight="bold" fill="#000000" font-size="38.7801628112793">FACEBOOK</text>
  <text x="-3243.06162315824" y="1347.889747197" font-family="Helvetica" font-weight="bold" fill="#000000" font-size="38.7801628112793">FAVICON</text>
  <text x="-7206.24882534633" y="6148.55815033892" transform="rotate(-9.7401 -7206.24882534633,6148.55815033892)" font-family="Arial" text-anchor="middle" fill="#000000" font-size="46.7891120910645">90.0°</text>
  <polygon fill="#000000" fill-opacity="1" points="-7271.824,6195.351 -7270.878,6195.901 -7269.816,6196.189 -7268.72,6196.187 -7267.658,6195.912 -7266.704,6195.364 -7265.928,6194.592 -7265.378,6193.646 -7265.089,6192.584 -7265.093,6191.488 -7265.367,6190.426 -7265.916,6189.472 -7266.687,6188.696 -7267.632,6188.146 -7268.694,6187.857 -7269.791,6187.861 -7270.853,6188.135 -7271.807,6188.684 -7272.583,6189.455 -7273.132,6190.4 -7273.421,6191.463 -7273.418,6192.559 -7273.144,6193.621 -7272.595,6194.575" xmlns="" />
  <polygon fill="#000000" fill-opacity="1" points="-7126.301,6170.372 -7125.833,6169.383 -7125.634,6168.3 -7125.729,6167.208 -7126.092,6166.173 -7126.718,6165.268 -7127.552,6164.56 -7128.541,6164.091 -7129.623,6163.893 -7130.715,6163.988 -7131.75,6164.351 -7132.655,6164.977 -7133.364,6165.811 -7133.832,6166.799 -7134.031,6167.882 -7133.935,6168.975 -7133.573,6170.009 -7132.946,6170.914 -7132.112,6171.623 -7131.124,6172.091 -7130.041,6172.29 -7128.949,6172.194 -7127.914,6171.832 -7127.009,6171.205" xmlns="" />
  <path d="M-7269.255,6192.023 C-7262.476,6182.409 -7253.362,6173.236 -7242.264,6166.012 C-7231.167,6158.788 -7218.085,6153.513 -7204.5,6151.181 C-7190.914,6148.849 -7176.822,6149.46 -7163.951,6152.569 C-7151.08,6155.679 -7139.428,6161.288 -7129.832,6168.09" stroke="#000000" stroke-width="0.24" fill="none" />
  <text x="-2836.45684398706" y="1558.5814506055" font-family="Helvetica" fill="#000000" font-size="19.4954624176025">600 DPI. PNG</text>
  <text x="-3243.06162315824" y="1576.27803387972" font-family="Helvetica" font-weight="bold" fill="#000000" font-size="38.7801628112793">E - SIGN </text>
  <text x="-3243.06162315824" y="1845.65134378988" font-family="Helvetica" font-weight="bold" fill="#000000" font-size="38.7801628112793">BUSINESS CARD</text>
  <text x="-7532.67601347396" y="6146.43970765683" transform="rotate(9.7401 -7532.67601347396,6146.43970765683)" font-family="Arial" text-anchor="middle" fill="#000000" font-size="46.7891120910645">90.0°</text>
  <polygon fill="#000000" fill-opacity="1" points="-7463.498,6193.851 -7462.727,6193.075 -7462.178,6192.121 -7461.904,6191.059 -7461.901,6189.963 -7462.189,6188.9 -7462.739,6187.955 -7463.515,6187.184 -7464.47,6186.635 -7465.531,6186.361 -7466.627,6186.357 -7467.69,6186.646 -7468.636,6187.196 -7469.407,6187.972 -7469.955,6188.926 -7470.229,6189.988 -7470.233,6191.084 -7469.944,6192.146 -7469.394,6193.092 -7468.618,6193.864 -7467.664,6194.412 -7466.603,6194.687 -7465.506,6194.689 -7464.444,6194.401" xmlns="" />
  <polygon fill="#000000" fill-opacity="1" points="-7609.021,6168.872 -7608.313,6169.705 -7607.408,6170.332 -7606.373,6170.694 -7605.281,6170.79 -7604.198,6170.591 -7603.209,6170.123 -7602.376,6169.414 -7601.75,6168.509 -7601.387,6167.474 -7601.292,6166.382 -7601.49,6165.299 -7601.958,6164.311 -7602.667,6163.477 -7603.572,6162.851 -7604.607,6162.488 -7605.699,6162.393 -7606.782,6162.591 -7607.771,6163.06 -7608.604,6163.768 -7609.23,6164.673 -7609.593,6165.708 -7609.688,6166.8 -7609.49,6167.883" xmlns="" />
  <path d="M-7466.066,6190.523 C-7472.844,6180.909 -7481.959,6171.736 -7493.057,6164.512 C-7504.154,6157.288 -7517.235,6152.013 -7530.821,6149.681 C-7544.407,6147.349 -7558.498,6147.96 -7571.37,6151.069 C-7584.241,6154.179 -7595.893,6159.788 -7605.489,6166.59" stroke="#000000" stroke-width="0.24" fill="none" />
  <text x="-51720.5616536082" y="55686.2441610294" transform="rotate(13.78907 -51720.5616536082,55686.2441610294)" font-family="Arial" text-anchor="middle" fill="#000000" font-size="46.7891120910645">90.0°</text>
  <polygon fill="#000000" fill-opacity="1" points="-51654.9,55738.42 -51654.08,55737.7 -51653.46,55736.79 -51653.12,55735.75 -51653.04,55734.66 -51653.25,55733.57 -51653.73,55732.59 -51654.45,55731.77 -51655.36,55731.16 -51656.4,55730.8 -51657.5,55730.73 -51658.58,55730.94 -51659.56,55731.42 -51660.38,55732.14 -51661,55733.05 -51661.35,55734.09 -51661.43,55735.19 -51661.21,55736.27 -51660.73,55737.25 -51660.01,55738.07 -51659.1,55738.69 -51658.06,55739.04 -51656.96,55739.12 -51655.89,55738.9" xmlns="" />
  <polygon fill="#000000" fill-opacity="1" points="-51798.3,55703.23 -51797.65,55704.11 -51796.79,55704.8 -51795.79,55705.23 -51794.7,55705.41 -51793.61,55705.29 -51792.59,55704.89 -51791.71,55704.24 -51791.02,55703.38 -51790.59,55702.38 -51790.41,55701.29 -51790.54,55700.2 -51790.93,55699.18 -51791.58,55698.3 -51792.44,55697.61 -51793.45,55697.17 -51794.53,55697 -51795.62,55697.12 -51796.64,55697.52 -51797.52,55698.17 -51798.21,55699.03 -51798.65,55700.03 -51798.82,55701.12 -51798.7,55702.21" xmlns="" />
  <path d="M-51657.23,55734.91 C-51663.31,55724.85 -51671.75,55715.05 -51682.31,55707.06 C-51692.87,55699.07 -51705.55,55692.89 -51718.94,55689.61 C-51732.32,55686.32 -51746.42,55685.93 -51759.48,55688.13 C-51772.54,55690.32 -51784.56,55695.09 -51794.61,55701.2" stroke="#000000" stroke-width="0.24" fill="none" />
  <text x="-52242.7449554642" y="55096.5802737493" font-family="Arial" fill="#000000" font-size="155.96369934082">a</text>
  <text x="-48481.7409951785" y="55686.2441610294" transform="rotate(13.78907 -48481.7409951785,55686.2441610294)" font-family="Arial" text-anchor="middle" fill="#000000" font-size="46.7891120910645">90.0°</text>
  <polygon fill="#000000" fill-opacity="1" points="-48416.08,55738.42 -48415.26,55737.7 -48414.64,55736.79 -48414.3,55735.75 -48414.21,55734.66 -48414.43,55733.57 -48414.91,55732.59 -48415.63,55731.77 -48416.54,55731.16 -48417.58,55730.8 -48418.68,55730.73 -48419.76,55730.94 -48420.74,55731.42 -48421.56,55732.14 -48422.18,55733.05 -48422.52,55734.09 -48422.61,55735.19 -48422.39,55736.27 -48421.91,55737.25 -48421.19,55738.07 -48420.28,55738.69 -48419.24,55739.04 -48418.14,55739.12 -48417.07,55738.9" xmlns="" />
  <polygon fill="#000000" fill-opacity="1" points="-48559.48,55703.23 -48558.83,55704.11 -48557.97,55704.8 -48556.97,55705.23 -48555.88,55705.41 -48554.79,55705.29 -48553.77,55704.89 -48552.89,55704.24 -48552.2,55703.38 -48551.77,55702.38 -48551.59,55701.29 -48551.71,55700.2 -48552.11,55699.18 -48552.76,55698.3 -48553.62,55697.61 -48554.63,55697.17 -48555.71,55697 -48556.8,55697.12 -48557.82,55697.52 -48558.7,55698.17 -48559.39,55699.03 -48559.83,55700.03 -48560,55701.12 -48559.88,55702.21" xmlns="" />
  <path d="M-48418.41,55734.91 C-48424.49,55724.85 -48432.93,55715.05 -48443.49,55707.06 C-48454.05,55699.07 -48466.73,55692.89 -48480.12,55689.61 C-48493.5,55686.32 -48507.6,55685.93 -48520.66,55688.13 C-48533.72,55690.32 -48545.74,55695.09 -48555.79,55701.2" stroke="#000000" stroke-width="0.24" fill="none" />
  <text x="-49954.5870426562" y="55682.634804731" transform="rotate(9.7401 -49954.5870426562,55682.634804731)" font-family="Arial" text-anchor="middle" fill="#000000" font-size="46.7891120910645">90.0°</text>
  <polygon fill="#000000" fill-opacity="1" points="-49885.41,55730.05 -49884.64,55729.27 -49884.09,55728.32 -49883.82,55727.25 -49883.81,55726.16 -49884.1,55725.09 -49884.65,55724.15 -49885.43,55723.38 -49886.38,55722.83 -49887.44,55722.55 -49888.54,55722.55 -49889.6,55722.84 -49890.55,55723.39 -49891.32,55724.17 -49891.87,55725.12 -49892.14,55726.18 -49892.14,55727.28 -49891.86,55728.34 -49891.3,55729.29 -49890.53,55730.06 -49889.57,55730.61 -49888.51,55730.88 -49887.42,55730.88 -49886.36,55730.6" xmlns="" />
  <polygon fill="#000000" fill-opacity="1" points="-50030.93,55705.07 -50030.22,55705.9 -50029.32,55706.53 -50028.29,55706.89 -50027.19,55706.98 -50026.11,55706.79 -50025.12,55706.32 -50024.29,55705.61 -50023.66,55704.7 -50023.3,55703.67 -50023.2,55702.58 -50023.4,55701.5 -50023.87,55700.5 -50024.58,55699.67 -50025.48,55699.05 -50026.52,55698.68 -50027.61,55698.59 -50028.69,55698.79 -50029.68,55699.25 -50030.52,55699.96 -50031.14,55700.87 -50031.5,55701.9 -50031.6,55703 -50031.4,55704.08" xmlns="" />
  <path d="M-49887.97,55726.71 C-49894.75,55717.1 -49903.87,55707.93 -49914.96,55700.7 C-49926.06,55693.48 -49939.14,55688.2 -49952.73,55685.87 C-49966.31,55683.54 -49980.41,55684.15 -49993.28,55687.26 C-50006.15,55690.37 -50017.8,55695.98 -50027.39,55702.78" stroke="#000000" stroke-width="0.24" fill="none" />
  <text x="-50379.6635893473" y="55081.3858489549" transform="rotate(9.7401 -50379.6635893473,55081.3858489549)" font-family="Arial" text-anchor="middle" fill="#000000" font-size="46.7891120910645">90.0°</text>
  <polygon fill="#000000" fill-opacity="1" points="-50310.48,55128.8 -50309.71,55128.02 -50309.16,55127.07 -50308.89,55126 -50308.89,55124.91 -50309.18,55123.85 -50309.73,55122.9 -50310.5,55122.13 -50311.46,55121.58 -50312.52,55121.31 -50313.61,55121.3 -50314.68,55121.59 -50315.63,55122.14 -50316.39,55122.92 -50316.94,55123.87 -50317.22,55124.93 -50317.22,55126.03 -50316.93,55127.09 -50316.38,55128.04 -50315.61,55128.81 -50314.65,55129.36 -50313.59,55129.63 -50312.49,55129.64 -50311.43,55129.35" xmlns="" />
  <polygon fill="#000000" fill-opacity="1" points="-50456.01,55103.82 -50455.3,55104.65 -50454.39,55105.28 -50453.36,55105.64 -50452.27,55105.73 -50451.19,55105.54 -50450.2,55105.07 -50449.36,55104.36 -50448.74,55103.46 -50448.38,55102.42 -50448.28,55101.33 -50448.48,55100.25 -50448.95,55099.26 -50449.66,55098.42 -50450.56,55097.8 -50451.59,55097.43 -50452.69,55097.34 -50453.77,55097.54 -50454.76,55098 -50455.59,55098.71 -50456.22,55099.62 -50456.58,55100.65 -50456.68,55101.75 -50456.48,55102.83" xmlns="" />
  <path d="M-50313.05,55125.46 C-50319.83,55115.85 -50328.94,55106.68 -50340.04,55099.45 C-50351.14,55092.23 -50364.22,55086.95 -50377.8,55084.62 C-50391.39,55082.29 -50405.48,55082.9 -50418.35,55086.01 C-50431.22,55089.12 -50442.88,55094.73 -50452.47,55101.53" stroke="#000000" stroke-width="0.24" fill="none" />
  <text x="-50053.2364012196" y="55083.5042916369" transform="rotate(-9.7401 -50053.2364012196,55083.5042916369)" font-family="Arial" text-anchor="middle" fill="#000000" font-size="46.7891120910645">90.0°</text>
  <polygon fill="#000000" fill-opacity="1" points="-50118.81,55130.3 -50117.87,55130.85 -50116.8,55131.14 -50115.71,55131.13 -50114.64,55130.86 -50113.69,55130.31 -50112.91,55129.54 -50112.37,55128.59 -50112.08,55127.53 -50112.08,55126.43 -50112.36,55125.37 -50112.9,55124.42 -50113.68,55123.64 -50114.62,55123.09 -50115.68,55122.8 -50116.78,55122.81 -50117.84,55123.08 -50118.79,55123.63 -50119.57,55124.4 -50120.12,55125.35 -50120.41,55126.41 -50120.41,55127.5 -50120.13,55128.57 -50119.58,55129.52" xmlns="" />
  <polygon fill="#000000" fill-opacity="1" points="-49973.29,55105.32 -49972.82,55104.33 -49972.62,55103.25 -49972.71,55102.15 -49973.08,55101.12 -49973.71,55100.21 -49974.54,55099.5 -49975.53,55099.04 -49976.61,55098.84 -49977.7,55098.93 -49978.74,55099.3 -49979.64,55099.92 -49980.35,55100.76 -49980.82,55101.75 -49981.02,55102.83 -49980.92,55103.92 -49980.56,55104.96 -49979.93,55105.86 -49979.1,55106.57 -49978.11,55107.04 -49977.03,55107.23 -49975.94,55107.14 -49974.9,55106.78 -49974,55106.15" xmlns="" />
  <path d="M-50116.24,55126.96 C-50109.46,55117.35 -50100.34,55108.18 -50089.25,55100.95 C-50078.15,55093.73 -50065.07,55088.45 -50051.48,55086.12 C-50037.9,55083.79 -50023.8,55084.4 -50010.93,55087.51 C-49998.06,55090.62 -49986.41,55096.23 -49976.82,55103.03" stroke="#000000" stroke-width="0.24" fill="none" />
  <text x="-13545.9367795481" y="6579.02168337506" transform="rotate(1.790801 -13545.9367795481,6579.02168337506)" font-family="Arial" fill="#000000" font-size="66.5445098876953">b</text>
  <text x="-18236.536641197" y="57802.9218790815" transform="rotate(1.790801 -18236.536641197,57802.9218790815)" font-family="Arial" fill="#000000" font-size="66.5445098876953">c</text>
  <text x="-18386.2272326359" y="58449.5238169963" transform="rotate(1.790801 -18386.2272326359,58449.5238169963)" font-family="Arial" fill="#000000" font-size="66.5445098876953">a</text>
  <text x="-13189.968379681" y="6430.97508171516" transform="rotate(-86 -13189.968379681,6430.97508171516)" font-family="Arial" text-anchor="middle" fill="#000000" font-size="38.9909248352051">8.0°</text>
  <polygon fill="#000000" fill-opacity="1" points="-13193.74,6492.71 -13191.91,6492.71 -13190.14,6492.236 -13188.56,6491.313 -13187.26,6490.029 -13186.35,6488.439 -13185.88,6486.678 -13185.88,6484.855 -13186.35,6483.083 -13187.27,6481.505 -13188.56,6480.206 -13190.15,6479.29 -13191.91,6478.817 -13193.73,6478.818 -13195.5,6479.291 -13197.08,6480.214 -13198.38,6481.499 -13199.3,6483.088 -13199.77,6484.85 -13199.77,6486.673 -13199.29,6488.445 -13198.37,6490.022 -13197.09,6491.322 -13195.5,6492.238" xmlns="" />
  <polygon fill="#000000" fill-opacity="1" points="-13184.96,6367.189 -13186.77,6367.412 -13188.47,6368.098 -13189.92,6369.206 -13191.06,6370.639 -13191.77,6372.329 -13192.03,6374.134 -13191.8,6375.943 -13191.12,6377.645 -13190.01,6379.098 -13188.58,6380.232 -13186.89,6380.947 -13185.08,6381.201 -13183.27,6380.979 -13181.57,6380.293 -13180.12,6379.185 -13178.98,6377.751 -13178.27,6376.062 -13178.01,6374.256 -13178.24,6372.447 -13178.92,6370.745 -13180.03,6369.292 -13181.46,6368.159 -13183.15,6367.443" xmlns="" />
  <path d="M-13192.82,6485.763 C-13187.63,6448.846 -13185.02,6411.475 -13185.02,6374.195" stroke="#000000" stroke-width="0.24" fill="none" />
  <text x="308.019247443338" y="4842.07911547787" font-family="Helvetica" font-weight="bold" fill="#000000" font-size="38.7801628112793">Mantis </text>
  <text x="308.019247443338" y="4886.91868018785" font-family="Helvetica" font-weight="bold" fill="#000000" font-size="38.7801628112793">Hax: #E10600</text>
  <text x="308.019247443338" y="4931.75824489783" font-family="Helvetica" fill="#000000" font-size="38.9909248352051">VERMILION</text>
  <text x="308.019247443338" y="4976.59780960779" font-family="Helvetica" fill="#000000" font-size="38.9909248352051">bold authority</text>
  <text x="1317.05327231689" y="5106.56650597304" font-family="Helvetica" font-weight="bold" fill="#000000" font-size="38.7801628112793">Background grey</text>
  <text x="1317.05327231689" y="5151.406070683" font-family="Helvetica" fill="#000000" font-size="38.9909248352051">Hax: #F1F3F8</text>
  <text x="-10524.473844906" y="7080.27985393485" font-family="Arial" fill="#000000" font-size="155.96369934082">a</text>
  <text x="-7107.59946678286" y="6747.68866343305" transform="rotate(9.7401 -7107.59946678286,6747.68866343305)" font-family="Arial" text-anchor="middle" fill="#000000" font-size="46.7891120910645">90.0°</text>
  <polygon fill="#000000" fill-opacity="1" points="-7038.421,6795.1 -7037.65,6794.324 -7037.102,6793.37 -7036.827,6792.308 -7036.824,6791.211 -7037.113,6790.149 -7037.663,6789.204 -7038.438,6788.433 -7039.393,6787.884 -7040.455,6787.61 -7041.551,6787.606 -7042.613,6787.896 -7043.559,6788.445 -7044.33,6789.221 -7044.878,6790.175 -7045.153,6791.237 -7045.156,6792.333 -7044.867,6793.396 -7044.318,6794.341 -7043.542,6795.112 -7042.587,6795.661 -7041.526,6795.936 -7040.429,6795.938 -7039.367,6795.649" xmlns="" />
  <polygon fill="#000000" fill-opacity="1" points="-7183.945,6770.121 -7183.236,6770.954 -7182.332,6771.581 -7181.297,6771.943 -7180.205,6772.039 -7179.122,6771.84 -7178.133,6771.372 -7177.299,6770.663 -7176.673,6769.758 -7176.311,6768.723 -7176.215,6767.631 -7176.414,6766.548 -7176.882,6765.56 -7177.59,6764.726 -7178.496,6764.1 -7179.53,6763.737 -7180.623,6763.642 -7181.705,6763.84 -7182.694,6764.309 -7183.527,6765.017 -7184.154,6765.922 -7184.517,6766.957 -7184.612,6768.049 -7184.413,6769.132" xmlns="" />
  <path d="M-7040.989,6791.772 C-7047.768,6782.158 -7056.882,6772.985 -7067.98,6765.761 C-7079.078,6758.537 -7092.159,6753.262 -7105.745,6750.93 C-7119.331,6748.598 -7133.422,6749.208 -7146.293,6752.318 C-7159.165,6755.428 -7170.816,6761.037 -7180.413,6767.839" stroke="#000000" stroke-width="0.24" fill="none" />
  <text x="-19387.0456181323" y="58535.4921607883" transform="rotate(1.790801 -19387.0456181323,58535.4921607883)" font-family="Arial" fill="#000000" font-size="66.5445098876953">d</text>
  <text x="-14491.6159085657" y="6749.21516104249" transform="rotate(1.790801 -14491.6159085657,6749.21516104249)" font-family="Arial" fill="#000000" font-size="66.5445098876953">c</text>
  <text x="-13150.3347905002" y="6209.65488875855" transform="rotate(79 -13150.3347905002,6209.65488875855)" font-family="Arial" text-anchor="middle" fill="#FF0000" font-size="38.9909248352051">38.0°</text>
  <polygon fill="#FF0000" fill-opacity="1" points="-13146.26,6499.383 -13144.44,6499.383 -13142.66,6498.911 -13141.08,6497.989 -13139.79,6496.705 -13138.87,6495.116 -13138.4,6493.354 -13138.39,6491.532 -13138.87,6489.759 -13139.79,6488.181 -13141.07,6486.881 -13142.66,6485.964 -13144.42,6485.491 -13146.25,6485.49 -13148.02,6485.963 -13149.6,6486.885 -13150.9,6488.169 -13151.81,6489.758 -13152.29,6491.519 -13152.29,6493.342 -13151.81,6495.115 -13150.89,6496.693 -13149.61,6497.993 -13148.02,6498.91" xmlns="" />
  <polygon fill="#FF0000" fill-opacity="1" points="-13254.33,5943.384 -13255.79,5944.482 -13256.92,5945.928 -13257.62,5947.614 -13257.89,5949.423 -13257.66,5951.243 -13256.98,5952.934 -13255.88,5954.389 -13254.43,5955.519 -13252.75,5956.222 -13250.94,5956.486 -13249.12,5956.26 -13247.43,5955.577 -13245.97,5954.479 -13244.84,5953.033 -13244.14,5951.347 -13243.88,5949.539 -13244.1,5947.718 -13244.79,5946.027 -13245.88,5944.572 -13247.33,5943.442 -13249.01,5942.739 -13250.82,5942.475 -13252.64,5942.701" xmlns="" />
  <path d="M-13145.34,6492.436 C-13132.37,6401.198 -13134.6,6305.123 -13152.68,6212.127 C-13170.76,6119.132 -13204.67,6029.215 -13250.88,5949.48" stroke="#FF0000" stroke-width="0.24" fill="none" />
  <text x="-49003.9242970345" y="55096.5802737493" font-family="Arial" fill="#000000" font-size="155.96369934082">a</text>
  <text x="-2930.86337783408" y="4504.68716257885" font-family="Times-Roman" fill="#000000" font-size="19.6019954681396">Profile image: </text>
  <text x="-2805.74751592134" y="4504.68716257885" font-family="Times-Bold" font-weight="bold" fill="#000000" font-size="19.6019954681396">200 × 200 px</text>
  <text x="-2930.86337783408" y="4527.10694493384" font-family="Times-Roman" fill="#000000" font-size="19.6019954681396">Export at 1080 × 1080 px</text>
  <text x="-50483.2183614608" y="55683.2532222962" transform="rotate(-9.7401 -50483.2183614608,55683.2532222962)" font-family="Arial" text-anchor="middle" fill="#000000" font-size="46.7891120910645">90.0°</text>
  <polygon fill="#000000" fill-opacity="1" points="-50548.79,55730.05 -50547.85,55730.6 -50546.79,55730.88 -50545.69,55730.88 -50544.63,55730.61 -50543.67,55730.06 -50542.9,55729.29 -50542.35,55728.34 -50542.06,55727.28 -50542.06,55726.18 -50542.34,55725.12 -50542.89,55724.17 -50543.66,55723.39 -50544.6,55722.84 -50545.66,55722.55 -50546.76,55722.55 -50547.82,55722.83 -50548.78,55723.38 -50549.55,55724.15 -50550.1,55725.09 -50550.39,55726.16 -50550.39,55727.25 -50550.11,55728.32 -50549.57,55729.27" xmlns="" />
  <polygon fill="#000000" fill-opacity="1" points="-50403.27,55705.07 -50402.8,55704.08 -50402.6,55703 -50402.7,55701.9 -50403.06,55700.87 -50403.69,55699.96 -50404.52,55699.25 -50405.51,55698.79 -50406.59,55698.59 -50407.68,55698.68 -50408.72,55699.05 -50409.63,55699.67 -50410.33,55700.5 -50410.8,55701.5 -50411,55702.58 -50410.91,55703.67 -50410.54,55704.7 -50409.91,55705.61 -50409.08,55706.32 -50408.09,55706.79 -50407.01,55706.98 -50405.92,55706.89 -50404.88,55706.53 -50403.98,55705.9" xmlns="" />
  <path d="M-50546.22,55726.71 C-50539.44,55717.1 -50530.33,55707.93 -50519.23,55700.7 C-50508.13,55693.48 -50495.05,55688.2 -50481.46,55685.87 C-50467.88,55683.54 -50453.79,55684.15 -50440.92,55687.26 C-50428.04,55690.37 -50416.39,55695.98 -50406.8,55702.78" stroke="#000000" stroke-width="0.24" fill="none" />
  <text x="-3243.06162315824" y="703.680625788945" font-family="Helvetica" font-weight="bold" fill="#000000" font-size="38.7801628112793">APP ICON</text>
  <text x="-2836.45684398706" y="1816.62597645403" font-family="Helvetica" fill="#000000" font-size="19.4954624176025">55 X 85</text>
  <text x="-22765.5746284624" y="141922.521181061" font-family="Avenir Next Heavy" fill="#000000" font-size="1040.67211914063">CERT.EXPERT</text>
  <text x="-22746.7341026034" y="138587.052275838" font-family="Avenir Next" fill="#000000" font-size="1040.67211914063">CERT.EXPERT</text>
  <text x="-22765.5746284624" y="140209.925673517" font-family="Avenir Medium" fill="#000000" font-size="1040.67211914063">CERT.EXPERT</text>
  <text x="-22746.7341026034" y="136706.593030813" font-family="Avenir Light" fill="#000000" font-size="1040.67211914063">CERT.EXPERT</text>
  <text x="-22749.5365753978" y="134991.479680657" font-family="Avenir Next Ultralight" fill="#000000" font-size="1040.67211914063">CERT.EXPERT</text>
</svg>