<?xml version="1.0" encoding="utf-8" standalone="no"?>
<!DOCTYPE svg PUBLIC "-//W3C//DTD SVG 1.1//EN" "http://www.w3.org/Graphics/SVG/1.1/DTD/svg11.dtd">
<svg version="1.1" width="841.68pt" height="595.2pt" viewBox="0 0 841.68 595.2" overflow="visible" xmlns="http://www.w3.org/2000/svg">
  <path d="M531.2012,267.1606 L535.7686,251.8483 L510.5229,210.5655 L512.6835,209.2442 L538.5182,251.4903 L533.312,268.9447 L539.7934,274.423 L539.7934,292.6909 L527.7021,281.9736 L525.907,275.541 L511.7612,298.0121 L493.1744,327.5379 L533.5685,333.2149 L529.5215,351.7626 L519.624,349.6031 L521.3426,341.7266 L476.2605,335.3907 L499.0007,299.2672 L495.5874,298.8949 L480.009,312.106 L479.9938,312.1124 L468.3457,347.0753 L491.2422,370.7853 L496.9652,415.5758 L486.9166,416.8597 L481.6196,375.4041 L456.7946,349.697 L467.2179,318.4103 L456.9055,321.2279 L448.4198,333.6715 L400.4159,379.6073 L351.9149,381.8442 L325.1853,397.2743 L320.1211,388.5029 L524.7112,270.3828 L526.6395,265.9315 L529.5078,265.7292 z" stroke="#E10600" stroke-width="0.24" fill="none" />
  <path d="M584.4644,326.0976 C584.4863,343.2816 581.3501,361.9099 574.2046,379.8858 C567.0591,397.8616 555.9042,415.1851 541.665,429.4242 C527.4259,443.6634 510.1025,454.8182 492.1266,461.9637 C474.1508,469.1093 455.5225,472.2454 438.3385,472.2235 C421.1544,472.2454 402.5262,469.1093 384.5503,461.9637 C366.5744,454.8182 349.251,443.6634 335.0119,429.4242 C320.7727,415.1851 309.6179,397.8616 302.4724,379.8858 C295.3268,361.9099 292.1907,343.2816 292.2126,326.0976 C292.1907,308.9136 295.3268,290.2853 302.4724,272.3094 C309.6179,254.3336 320.7727,237.0102 335.0119,222.771 C349.251,208.5319 366.5744,197.377 384.5503,190.2315 C402.5262,183.086 421.1544,179.9498 438.3385,179.9717 C455.5225,179.9498 474.1508,183.086 492.1266,190.2315 C510.1025,197.377 527.4259,208.5319 541.665,222.771 C555.9042,237.0102 567.0591,254.3336 574.2046,272.3094 C581.3501,290.2853 584.4863,308.9136 584.4644,326.0976 z M531.2012,267.1606 L529.5078,265.7292 L526.6395,265.9314 L524.7111,270.3827 L320.1211,388.5028 L325.1852,397.2743 L351.9149,381.8442 L400.4159,379.6073 L448.4198,333.6715 L456.9055,321.2278 L467.2178,318.4103 L456.7946,349.6969 L481.6196,375.404 L486.9166,416.8597 L496.9652,415.5758 L491.2421,370.7852 L468.3457,347.0753 L479.9938,312.1123 L495.5874,298.8949 L499.0007,299.2671 L476.2604,335.3907 L521.3426,341.7266 L519.624,349.6031 L529.5215,351.7626 L533.5685,333.2149 L493.1743,327.5379 L511.7612,298.0121 L525.907,275.541 L527.7021,281.9736 L539.7934,292.6908 L539.7934,274.423 L533.312,268.9446 L538.5182,251.4902 L512.6835,209.2442 L510.5229,210.5655 L535.7686,251.8483 z" stroke="#000000" stroke-width="0" fill="#F1F3F8" fill-opacity="1" />
  <path d="M531.2012,267.1606 L535.7686,251.8483 L510.5229,210.5655 L512.6835,209.2442 L538.5182,251.4902 L533.312,268.9446 L539.7934,274.423 L539.7934,292.6908 L527.7021,281.9736 L525.907,275.541 L511.7612,298.0121 L493.1743,327.5379 L533.5685,333.2149 L529.5215,351.7626 L519.624,349.6031 L521.3426,341.7266 L476.2604,335.3907 L499.0007,299.2671 L495.5874,298.8949 L480.009,312.106 L468.3457,347.0753 L491.2421,370.7852 L496.9652,415.5758 L486.9166,416.8597 L481.6196,375.404 L456.7946,349.6969 L467.2178,318.4103 L456.9055,321.2278 L448.4198,333.6715 L400.4159,379.6073 L351.9149,381.8442 L325.1852,397.2743 L320.1211,388.5028 L524.7111,270.3827 L526.6395,265.9314 L529.5078,265.7292 z" stroke="#000000" stroke-width="0" fill="#E10600" fill-opacity="1" />
</svg>